<?xml version="1.0" encoding="UTF-8" standalone="no"?>
<!DOCTYPE svg PUBLIC "-//W3C//DTD SVG 1.1//EN"
 "http://www.w3.org/Graphics/SVG/1.1/DTD/svg11.dtd">
<!-- Generated by graphviz version 14.1.1 (20251213.1925)
 -->
<!-- Title: InheritanceTree Pages: 1 -->
<svg width="404pt" height="429pt"
 viewBox="0.00 0.00 404.00 429.00" xmlns="http://www.w3.org/2000/svg" xmlns:xlink="http://www.w3.org/1999/xlink">
<g id="graph0" class="graph" transform="scale(1 1) rotate(0) translate(4 424.5)">
<title>InheritanceTree</title>
<polygon fill="white" stroke="none" points="-4,4 -4,-424.5 399.75,-424.5 399.75,4 -4,4"/>
<text xml:space="preserve" text-anchor="middle" x="197.88" y="-7.2" font-family="Times New Roman,serif" font-size="14.00">simple_markdown &#45; Inheritance Hierarchy</text>
<!-- MD_INLINE_PROCESSOR -->
<g id="node1" class="node">
<title>MD_INLINE_PROCESSOR</title>
<path fill="none" stroke="black" d="M162.25,-60.5C162.25,-60.5 12,-60.5 12,-60.5 6,-60.5 0,-54.5 0,-48.5 0,-48.5 0,-36.5 0,-36.5 0,-30.5 6,-24.5 12,-24.5 12,-24.5 162.25,-24.5 162.25,-24.5 168.25,-24.5 174.25,-30.5 174.25,-36.5 174.25,-36.5 174.25,-48.5 174.25,-48.5 174.25,-54.5 168.25,-60.5 162.25,-60.5"/>
<text xml:space="preserve" text-anchor="middle" x="87.12" y="-37.45" font-family="Times New Roman,serif" font-size="14.00">MD_INLINE_PROCESSOR</text>
</g>
<!-- MD_PARSE_STATE -->
<g id="node2" class="node">
<title>MD_PARSE_STATE</title>
<path fill="none" stroke="black" d="M141.62,-132.5C141.62,-132.5 32.62,-132.5 32.62,-132.5 26.62,-132.5 20.62,-126.5 20.62,-120.5 20.62,-120.5 20.62,-108.5 20.62,-108.5 20.62,-102.5 26.62,-96.5 32.62,-96.5 32.62,-96.5 141.62,-96.5 141.62,-96.5 147.62,-96.5 153.62,-102.5 153.62,-108.5 153.62,-108.5 153.62,-120.5 153.62,-120.5 153.62,-126.5 147.62,-132.5 141.62,-132.5"/>
<text xml:space="preserve" text-anchor="middle" x="87.12" y="-109.45" font-family="Times New Roman,serif" font-size="14.00">MD_PARSE_STATE</text>
</g>
<!-- MD_TABLE_PROCESSOR -->
<g id="node3" class="node">
<title>MD_TABLE_PROCESSOR</title>
<path fill="none" stroke="black" d="M161.12,-204.5C161.12,-204.5 13.12,-204.5 13.12,-204.5 7.12,-204.5 1.12,-198.5 1.12,-192.5 1.12,-192.5 1.12,-180.5 1.12,-180.5 1.12,-174.5 7.12,-168.5 13.12,-168.5 13.12,-168.5 161.12,-168.5 161.12,-168.5 167.12,-168.5 173.12,-174.5 173.12,-180.5 173.12,-180.5 173.12,-192.5 173.12,-192.5 173.12,-198.5 167.12,-204.5 161.12,-204.5"/>
<text xml:space="preserve" text-anchor="middle" x="87.12" y="-181.45" font-family="Times New Roman,serif" font-size="14.00">MD_TABLE_PROCESSOR</text>
</g>
<!-- SIMPLE_MARKDOWN -->
<g id="node4" class="node">
<title>SIMPLE_MARKDOWN</title>
<path fill="none" stroke="black" d="M152.88,-276.5C152.88,-276.5 21.38,-276.5 21.38,-276.5 15.38,-276.5 9.38,-270.5 9.38,-264.5 9.38,-264.5 9.38,-252.5 9.38,-252.5 9.38,-246.5 15.38,-240.5 21.38,-240.5 21.38,-240.5 152.88,-240.5 152.88,-240.5 158.88,-240.5 164.88,-246.5 164.88,-252.5 164.88,-252.5 164.88,-264.5 164.88,-264.5 164.88,-270.5 158.88,-276.5 152.88,-276.5"/>
<text xml:space="preserve" text-anchor="middle" x="87.12" y="-253.45" font-family="Times New Roman,serif" font-size="14.00">SIMPLE_MARKDOWN</text>
</g>
<!-- LIB_TESTS -->
<g id="node5" class="node">
<title>LIB_TESTS</title>
<path fill="none" stroke="black" d="M117.25,-348.5C117.25,-348.5 57,-348.5 57,-348.5 51,-348.5 45,-342.5 45,-336.5 45,-336.5 45,-324.5 45,-324.5 45,-318.5 51,-312.5 57,-312.5 57,-312.5 117.25,-312.5 117.25,-312.5 123.25,-312.5 129.25,-318.5 129.25,-324.5 129.25,-324.5 129.25,-336.5 129.25,-336.5 129.25,-342.5 123.25,-348.5 117.25,-348.5"/>
<text xml:space="preserve" text-anchor="middle" x="87.12" y="-325.45" font-family="Times New Roman,serif" font-size="14.00">LIB_TESTS</text>
</g>
<!-- EQA_TEST_SET -->
<g id="node6" class="node">
<title>EQA_TEST_SET</title>
<path fill="none" stroke="black" d="M383.75,-348.5C383.75,-348.5 294.25,-348.5 294.25,-348.5 288.25,-348.5 282.25,-342.5 282.25,-336.5 282.25,-336.5 282.25,-324.5 282.25,-324.5 282.25,-318.5 288.25,-312.5 294.25,-312.5 294.25,-312.5 383.75,-312.5 383.75,-312.5 389.75,-312.5 395.75,-318.5 395.75,-324.5 395.75,-324.5 395.75,-336.5 395.75,-336.5 395.75,-342.5 389.75,-348.5 383.75,-348.5"/>
<text xml:space="preserve" text-anchor="middle" x="339" y="-325.45" font-family="Times New Roman,serif" font-size="14.00">EQA_TEST_SET</text>
</g>
<!-- LIB_TESTS&#45;&gt;EQA_TEST_SET -->
<g id="edge1" class="edge">
<title>LIB_TESTS&#45;&gt;EQA_TEST_SET</title>
<path fill="none" stroke="black" d="M129.57,-330.5C129.57,-330.5 270.67,-330.5 270.67,-330.5"/>
<polygon fill="none" stroke="black" points="270.67,-334 280.67,-330.5 270.67,-327 270.67,-334"/>
</g>
<!-- TEST_APP -->
<g id="node7" class="node">
<title>TEST_APP</title>
<path fill="none" stroke="black" d="M115,-420.5C115,-420.5 59.25,-420.5 59.25,-420.5 53.25,-420.5 47.25,-414.5 47.25,-408.5 47.25,-408.5 47.25,-396.5 47.25,-396.5 47.25,-390.5 53.25,-384.5 59.25,-384.5 59.25,-384.5 115,-384.5 115,-384.5 121,-384.5 127,-390.5 127,-396.5 127,-396.5 127,-408.5 127,-408.5 127,-414.5 121,-420.5 115,-420.5"/>
<text xml:space="preserve" text-anchor="middle" x="87.12" y="-397.45" font-family="Times New Roman,serif" font-size="14.00">TEST_APP</text>
</g>
</g>
</svg>
