<?xml version="1.0" encoding="UTF-8" standalone="no"?>
<!DOCTYPE svg PUBLIC "-//W3C//DTD SVG 1.1//EN"
 "http://www.w3.org/Graphics/SVG/1.1/DTD/svg11.dtd">
<!-- Generated by graphviz version 14.1.1 (20251213.1925)
 -->
<!-- Title: ContractCoverage Pages: 1 -->
<svg width="816pt" height="709pt"
 viewBox="48.00 48.00 768.00 661.00" xmlns="http://www.w3.org/2000/svg" xmlns:xlink="http://www.w3.org/1999/xlink">
<g id="graph0" class="graph" transform="scale(0.552571 0.552571) rotate(0) translate(90.87 1192.62)">
<title>ContractCoverage</title>
<polygon fill="white" stroke="none" points="-4,4 -4,-1105.75 1299,-1105.75 1299,4 -4,4"/>
<text xml:space="preserve" text-anchor="middle" x="647.5" y="-1088.25" font-family="Times New Roman,serif" font-size="10.00">simple_markdown &#45; Contract Coverage</text>
<g id="clust1" class="cluster">
<title>cluster_MD_INLINE_PROCESSOR</title>
<polygon fill="white" stroke="black" points="851,-74 851,-518.5 1295,-518.5 1295,-74 851,-74"/>
<text xml:space="preserve" text-anchor="middle" x="1073" y="-501.2" font-family="Times New Roman,serif" font-size="14.00">MD_INLINE_PROCESSOR</text>
</g>
<g id="clust2" class="cluster">
<title>cluster_MD_PARSE_STATE</title>
<polygon fill="white" stroke="black" points="444,-740 444,-1082.5 766,-1082.5 766,-740 444,-740"/>
<text xml:space="preserve" text-anchor="middle" x="605" y="-1065.2" font-family="Times New Roman,serif" font-size="14.00">MD_PARSE_STATE</text>
</g>
<g id="clust3" class="cluster">
<title>cluster_MD_TABLE_PROCESSOR</title>
<polygon fill="white" stroke="black" points="850.69,-592 850.69,-918.5 1171.31,-918.5 1171.31,-592 850.69,-592"/>
<text xml:space="preserve" text-anchor="middle" x="1011" y="-901.2" font-family="Times New Roman,serif" font-size="14.00">MD_TABLE_PROCESSOR</text>
</g>
<g id="clust4" class="cluster">
<title>cluster_SIMPLE_MARKDOWN</title>
<polygon fill="white" stroke="black" points="259,-148 259,-676.5 781,-676.5 781,-148 259,-148"/>
<text xml:space="preserve" text-anchor="middle" x="520" y="-659.2" font-family="Times New Roman,serif" font-size="14.00">SIMPLE_MARKDOWN</text>
</g>
<g id="clust5" class="cluster">
<title>cluster_LIB_TESTS</title>
<polygon fill="white" stroke="black" points="517.87,0 517.87,-60.5 602.12,-60.5 602.12,0 517.87,0"/>
<text xml:space="preserve" text-anchor="middle" x="560" y="-43.2" font-family="Times New Roman,serif" font-size="14.00">LIB_TESTS</text>
</g>
<g id="clust6" class="cluster">
<title>cluster_TEST_APP</title>
<polygon fill="white" stroke="black" points="0,-407.5 0,-583 174,-583 174,-407.5 0,-407.5"/>
<text xml:space="preserve" text-anchor="middle" x="87" y="-565.7" font-family="Times New Roman,serif" font-size="14.00">TEST_APP</text>
</g>
<g id="clust7" class="cluster">
<title>cluster_legend</title>
<polygon fill="lightyellow" stroke="black" points="147.62,-777.12 147.62,-973.38 368.37,-973.38 368.37,-777.12 147.62,-777.12"/>
<text xml:space="preserve" text-anchor="middle" x="258" y="-959.88" font-family="Times New Roman,serif" font-size="10.00">Legend</text>
</g>
<!-- MD_INLINE_PROCESSOR_make -->
<g id="node1" class="node">
<title>MD_INLINE_PROCESSOR_make</title>
<polygon fill="lightcoral" stroke="black" points="905,-494 851,-494 851,-458 905,-458 905,-494"/>
<text xml:space="preserve" text-anchor="middle" x="878" y="-472.13" font-family="Times New Roman,serif" font-size="10.00">make</text>
</g>
<!-- MD_INLINE_PROCESSOR_process -->
<g id="node2" class="node">
<title>MD_INLINE_PROCESSOR_process</title>
<polygon fill="khaki" stroke="black" points="1295,-212 1241,-212 1241,-176 1295,-176 1295,-212"/>
<text xml:space="preserve" text-anchor="middle" x="1268" y="-190.12" font-family="Times New Roman,serif" font-size="10.00">process</text>
</g>
<!-- MD_INLINE_PROCESSOR_process_bold -->
<g id="node3" class="node">
<title>MD_INLINE_PROCESSOR_process_bold</title>
<polygon fill="khaki" stroke="black" points="1275,-290 1205,-290 1205,-254 1275,-254 1275,-290"/>
<text xml:space="preserve" text-anchor="middle" x="1240" y="-268.12" font-family="Times New Roman,serif" font-size="10.00">process_bold</text>
</g>
<!-- MD_INLINE_PROCESSOR_process_italic -->
<g id="node4" class="node">
<title>MD_INLINE_PROCESSOR_process_italic</title>
<polygon fill="khaki" stroke="black" points="1271.12,-458 1198.88,-458 1198.88,-422 1271.12,-422 1271.12,-458"/>
<text xml:space="preserve" text-anchor="middle" x="1235" y="-436.13" font-family="Times New Roman,serif" font-size="10.00">process_italic</text>
</g>
<!-- MD_INLINE_PROCESSOR_process_strikethrough -->
<g id="node5" class="node">
<title>MD_INLINE_PROCESSOR_process_strikethrough</title>
<polygon fill="khaki" stroke="black" points="1221,-230 1115,-230 1115,-194 1221,-194 1221,-230"/>
<text xml:space="preserve" text-anchor="middle" x="1168" y="-208.12" font-family="Times New Roman,serif" font-size="10.00">process_strikethrough</text>
</g>
<!-- MD_INLINE_PROCESSOR_process_code_inline -->
<g id="node6" class="node">
<title>MD_INLINE_PROCESSOR_process_code_inline</title>
<polygon fill="khaki" stroke="black" points="1059,-218 959,-218 959,-182 1059,-182 1059,-218"/>
<text xml:space="preserve" text-anchor="middle" x="1009" y="-196.12" font-family="Times New Roman,serif" font-size="10.00">process_code_inline</text>
</g>
<!-- MD_INLINE_PROCESSOR_process_links -->
<g id="node7" class="node">
<title>MD_INLINE_PROCESSOR_process_links</title>
<polygon fill="khaki" stroke="black" points="969.75,-158 898.25,-158 898.25,-122 969.75,-122 969.75,-158"/>
<text xml:space="preserve" text-anchor="middle" x="934" y="-136.12" font-family="Times New Roman,serif" font-size="10.00">process_links</text>
</g>
<!-- MD_INLINE_PROCESSOR_process_images -->
<g id="node8" class="node">
<title>MD_INLINE_PROCESSOR_process_images</title>
<polygon fill="khaki" stroke="black" points="1007.87,-446 928.12,-446 928.12,-410 1007.87,-410 1007.87,-446"/>
<text xml:space="preserve" text-anchor="middle" x="968" y="-424.12" font-family="Times New Roman,serif" font-size="10.00">process_images</text>
</g>
<!-- MD_INLINE_PROCESSOR_process_autolinks -->
<g id="node9" class="node">
<title>MD_INLINE_PROCESSOR_process_autolinks</title>
<polygon fill="khaki" stroke="black" points="1227.75,-398 1138.25,-398 1138.25,-362 1227.75,-362 1227.75,-398"/>
<text xml:space="preserve" text-anchor="middle" x="1183" y="-376.12" font-family="Times New Roman,serif" font-size="10.00">process_autolinks</text>
</g>
<!-- MD_INLINE_PROCESSOR_escape_html -->
<g id="node10" class="node">
<title>MD_INLINE_PROCESSOR_escape_html</title>
<polygon fill="khaki" stroke="black" points="959.5,-326 892.5,-326 892.5,-290 959.5,-290 959.5,-326"/>
<text xml:space="preserve" text-anchor="middle" x="926" y="-304.12" font-family="Times New Roman,serif" font-size="10.00">escape_html</text>
</g>
<!-- MD_INLINE_PROCESSOR_is_trailing_punctuation -->
<g id="node11" class="node">
<title>MD_INLINE_PROCESSOR_is_trailing_punctuation</title>
<polygon fill="lightcoral" stroke="black" points="1095.37,-278 982.62,-278 982.62,-242 1095.37,-242 1095.37,-278"/>
<text xml:space="preserve" text-anchor="middle" x="1039" y="-256.12" font-family="Times New Roman,serif" font-size="10.00">is_trailing_punctuation</text>
</g>
<!-- MD_INLINE_PROCESSOR_process_highlight -->
<g id="node12" class="node">
<title>MD_INLINE_PROCESSOR_process_highlight</title>
<polygon fill="khaki" stroke="black" points="1167.75,-170 1078.25,-170 1078.25,-134 1167.75,-134 1167.75,-170"/>
<text xml:space="preserve" text-anchor="middle" x="1123" y="-148.12" font-family="Times New Roman,serif" font-size="10.00">process_highlight</text>
</g>
<!-- MD_INLINE_PROCESSOR_process_superscript -->
<g id="node13" class="node">
<title>MD_INLINE_PROCESSOR_process_superscript</title>
<polygon fill="khaki" stroke="black" points="1053.75,-386 958.25,-386 958.25,-350 1053.75,-350 1053.75,-386"/>
<text xml:space="preserve" text-anchor="middle" x="1006" y="-364.12" font-family="Times New Roman,serif" font-size="10.00">process_superscript</text>
</g>
<!-- MD_INLINE_PROCESSOR_process_subscript -->
<g id="node14" class="node">
<title>MD_INLINE_PROCESSOR_process_subscript</title>
<polygon fill="lightgray" stroke="black" points="1119,-446 1031,-446 1031,-410 1119,-410 1119,-446"/>
<text xml:space="preserve" text-anchor="middle" x="1075" y="-424.12" font-family="Times New Roman,serif" font-size="10.00">process_subscript</text>
</g>
<!-- MD_INLINE_PROCESSOR_text_not_void -->
<g id="node15" class="node">
<title>MD_INLINE_PROCESSOR_text_not_void</title>
<polygon fill="lightgray" stroke="black" points="1267.25,-152 1192.75,-152 1192.75,-116 1267.25,-116 1267.25,-152"/>
<text xml:space="preserve" text-anchor="middle" x="1230" y="-130.12" font-family="Times New Roman,serif" font-size="10.00">text_not_void</text>
</g>
<!-- MD_INLINE_PROCESSOR_i -->
<g id="node16" class="node">
<title>MD_INLINE_PROCESSOR_i</title>
<polygon fill="lightgray" stroke="black" points="1049,-158 995,-158 995,-122 1049,-122 1049,-158"/>
<text xml:space="preserve" text-anchor="middle" x="1022" y="-136.12" font-family="Times New Roman,serif" font-size="10.00">i</text>
</g>
<!-- MD_INLINE_PROCESSOR_l_start -->
<g id="node17" class="node">
<title>MD_INLINE_PROCESSOR_l_start</title>
<polygon fill="lightgray" stroke="black" points="935,-386 881,-386 881,-350 935,-350 935,-386"/>
<text xml:space="preserve" text-anchor="middle" x="908" y="-364.12" font-family="Times New Roman,serif" font-size="10.00">l_start</text>
</g>
<!-- MD_INLINE_PROCESSOR_l_end -->
<g id="node18" class="node">
<title>MD_INLINE_PROCESSOR_l_end</title>
<polygon fill="lightgray" stroke="black" points="935,-266 881,-266 881,-230 935,-230 935,-266"/>
<text xml:space="preserve" text-anchor="middle" x="908" y="-244.12" font-family="Times New Roman,serif" font-size="10.00">l_end</text>
</g>
<!-- MD_INLINE_PROCESSOR_l_content -->
<g id="node19" class="node">
<title>MD_INLINE_PROCESSOR_l_content</title>
<polygon fill="lightcoral" stroke="black" points="1127.5,-110 1072.5,-110 1072.5,-74 1127.5,-74 1127.5,-110"/>
<text xml:space="preserve" text-anchor="middle" x="1100" y="-88.12" font-family="Times New Roman,serif" font-size="10.00">l_content</text>
</g>
<!-- MD_INLINE_PROCESSOR_process_footnote_refs -->
<g id="node20" class="node">
<title>MD_INLINE_PROCESSOR_process_footnote_refs</title>
<polygon fill="khaki" stroke="black" points="1183.62,-338 1078.37,-338 1078.37,-302 1183.62,-302 1183.62,-338"/>
<text xml:space="preserve" text-anchor="middle" x="1131" y="-316.12" font-family="Times New Roman,serif" font-size="10.00">process_footnote_refs</text>
</g>
<!-- MD_PARSE_STATE_make -->
<g id="node21" class="node">
<title>MD_PARSE_STATE_make</title>
<polygon fill="khaki" stroke="black" points="576,-776 522,-776 522,-740 576,-740 576,-776"/>
<text xml:space="preserve" text-anchor="middle" x="549" y="-754.12" font-family="Times New Roman,serif" font-size="10.00">make</text>
</g>
<!-- MD_PARSE_STATE_paragraph -->
<g id="node22" class="node">
<title>MD_PARSE_STATE_paragraph</title>
<polygon fill="lightgray" stroke="black" points="584.25,-1052 527.75,-1052 527.75,-1016 584.25,-1016 584.25,-1052"/>
<text xml:space="preserve" text-anchor="middle" x="556" y="-1030.12" font-family="Times New Roman,serif" font-size="10.00">paragraph</text>
</g>
<!-- MD_PARSE_STATE_in_code_block -->
<g id="node23" class="node">
<title>MD_PARSE_STATE_in_code_block</title>
<polygon fill="lightgray" stroke="black" points="580.75,-836 503.25,-836 503.25,-800 580.75,-800 580.75,-836"/>
<text xml:space="preserve" text-anchor="middle" x="542" y="-814.12" font-family="Times New Roman,serif" font-size="10.00">in_code_block</text>
</g>
<!-- MD_PARSE_STATE_in_list -->
<g id="node24" class="node">
<title>MD_PARSE_STATE_in_list</title>
<polygon fill="lightgray" stroke="black" points="498,-776 444,-776 444,-740 498,-740 498,-776"/>
<text xml:space="preserve" text-anchor="middle" x="471" y="-754.12" font-family="Times New Roman,serif" font-size="10.00">in_list</text>
</g>
<!-- MD_PARSE_STATE_list_type -->
<g id="node25" class="node">
<title>MD_PARSE_STATE_list_type</title>
<polygon fill="lightgray" stroke="black" points="504,-1058 450,-1058 450,-1022 504,-1022 504,-1058"/>
<text xml:space="preserve" text-anchor="middle" x="477" y="-1036.13" font-family="Times New Roman,serif" font-size="10.00">list_type</text>
</g>
<!-- MD_PARSE_STATE_in_paragraph -->
<g id="node26" class="node">
<title>MD_PARSE_STATE_in_paragraph</title>
<polygon fill="lightgray" stroke="black" points="766,-788 696,-788 696,-752 766,-752 766,-788"/>
<text xml:space="preserve" text-anchor="middle" x="731" y="-766.12" font-family="Times New Roman,serif" font-size="10.00">in_paragraph</text>
</g>
<!-- MD_PARSE_STATE_in_table -->
<g id="node27" class="node">
<title>MD_PARSE_STATE_in_table</title>
<polygon fill="lightgray" stroke="black" points="504,-932 450,-932 450,-896 504,-896 504,-932"/>
<text xml:space="preserve" text-anchor="middle" x="477" y="-910.12" font-family="Times New Roman,serif" font-size="10.00">in_table</text>
</g>
<!-- MD_PARSE_STATE_table_header_done -->
<g id="node28" class="node">
<title>MD_PARSE_STATE_table_header_done</title>
<polygon fill="lightgray" stroke="black" points="754,-848 660,-848 660,-812 754,-812 754,-848"/>
<text xml:space="preserve" text-anchor="middle" x="707" y="-826.12" font-family="Times New Roman,serif" font-size="10.00">table_header_done</text>
</g>
<!-- MD_PARSE_STATE_set_in_code_block -->
<g id="node29" class="node">
<title>MD_PARSE_STATE_set_in_code_block</title>
<polygon fill="khaki" stroke="black" points="718,-956 624,-956 624,-920 718,-920 718,-956"/>
<text xml:space="preserve" text-anchor="middle" x="671" y="-934.12" font-family="Times New Roman,serif" font-size="10.00">set_in_code_block</text>
</g>
<!-- MD_PARSE_STATE_set_in_list -->
<g id="node30" class="node">
<title>MD_PARSE_STATE_set_in_list</title>
<polygon fill="khaki" stroke="black" points="664.38,-1052 605.62,-1052 605.62,-1016 664.38,-1016 664.38,-1052"/>
<text xml:space="preserve" text-anchor="middle" x="635" y="-1030.12" font-family="Times New Roman,serif" font-size="10.00">set_in_list</text>
</g>
<!-- MD_PARSE_STATE_set_list_type -->
<g id="node31" class="node">
<title>MD_PARSE_STATE_set_list_type</title>
<polygon fill="palegreen" stroke="black" points="674.25,-788 605.75,-788 605.75,-752 674.25,-752 674.25,-788"/>
<text xml:space="preserve" text-anchor="middle" x="640" y="-766.12" font-family="Times New Roman,serif" font-size="10.00">set_list_type</text>
</g>
<!-- MD_PARSE_STATE_set_in_paragraph -->
<g id="node32" class="node">
<title>MD_PARSE_STATE_set_in_paragraph</title>
<polygon fill="khaki" stroke="black" points="602.25,-992 515.75,-992 515.75,-956 602.25,-956 602.25,-992"/>
<text xml:space="preserve" text-anchor="middle" x="559" y="-970.12" font-family="Times New Roman,serif" font-size="10.00">set_in_paragraph</text>
</g>
<!-- MD_PARSE_STATE_set_in_table -->
<g id="node33" class="node">
<title>MD_PARSE_STATE_set_in_table</title>
<polygon fill="khaki" stroke="black" points="750.12,-1016 683.87,-1016 683.87,-980 750.12,-980 750.12,-1016"/>
<text xml:space="preserve" text-anchor="middle" x="717" y="-994.12" font-family="Times New Roman,serif" font-size="10.00">set_in_table</text>
</g>
<!-- MD_PARSE_STATE_set_table_header_done -->
<g id="node34" class="node">
<title>MD_PARSE_STATE_set_table_header_done</title>
<polygon fill="khaki" stroke="black" points="638.25,-896 527.75,-896 527.75,-860 638.25,-860 638.25,-896"/>
<text xml:space="preserve" text-anchor="middle" x="583" y="-874.12" font-family="Times New Roman,serif" font-size="10.00">set_table_header_done</text>
</g>
<!-- MD_TABLE_PROCESSOR_make -->
<g id="node35" class="node">
<title>MD_TABLE_PROCESSOR_make</title>
<polygon fill="khaki" stroke="black" points="905.19,-628 851.19,-628 851.19,-592 905.19,-592 905.19,-628"/>
<text xml:space="preserve" text-anchor="middle" x="878.19" y="-606.13" font-family="Times New Roman,serif" font-size="10.00">make</text>
</g>
<!-- MD_TABLE_PROCESSOR_is_table_row -->
<g id="node36" class="node">
<title>MD_TABLE_PROCESSOR_is_table_row</title>
<polygon fill="khaki" stroke="black" points="947.81,-894 878.56,-894 878.56,-858 947.81,-858 947.81,-894"/>
<text xml:space="preserve" text-anchor="middle" x="913.19" y="-872.13" font-family="Times New Roman,serif" font-size="10.00">is_table_row</text>
</g>
<!-- MD_TABLE_PROCESSOR_is_separator_row -->
<g id="node37" class="node">
<title>MD_TABLE_PROCESSOR_is_separator_row</title>
<polygon fill="khaki" stroke="black" points="1055.06,-894 969.31,-894 969.31,-858 1055.06,-858 1055.06,-894"/>
<text xml:space="preserve" text-anchor="middle" x="1012.19" y="-872.13" font-family="Times New Roman,serif" font-size="10.00">is_separator_row</text>
</g>
<!-- MD_TABLE_PROCESSOR_convert_table_start -->
<g id="node38" class="node">
<title>MD_TABLE_PROCESSOR_convert_table_start</title>
<polygon fill="lightcoral" stroke="black" points="1141.56,-698 1046.81,-698 1046.81,-662 1141.56,-662 1141.56,-698"/>
<text xml:space="preserve" text-anchor="middle" x="1094.19" y="-676.12" font-family="Times New Roman,serif" font-size="10.00">convert_table_start</text>
</g>
<!-- MD_TABLE_PROCESSOR_convert_table_end -->
<g id="node39" class="node">
<title>MD_TABLE_PROCESSOR_convert_table_end</title>
<polygon fill="lightcoral" stroke="black" points="999.44,-838 906.94,-838 906.94,-802 999.44,-802 999.44,-838"/>
<text xml:space="preserve" text-anchor="middle" x="953.19" y="-816.12" font-family="Times New Roman,serif" font-size="10.00">convert_table_end</text>
</g>
<!-- MD_TABLE_PROCESSOR_convert_header_row -->
<g id="node40" class="node">
<title>MD_TABLE_PROCESSOR_convert_header_row</title>
<polygon fill="khaki" stroke="black" points="1119.19,-796 1019.19,-796 1019.19,-760 1119.19,-760 1119.19,-796"/>
<text xml:space="preserve" text-anchor="middle" x="1069.19" y="-774.13" font-family="Times New Roman,serif" font-size="10.00">convert_header_row</text>
</g>
<!-- MD_TABLE_PROCESSOR_convert_body_row -->
<g id="node41" class="node">
<title>MD_TABLE_PROCESSOR_convert_body_row</title>
<polygon fill="khaki" stroke="black" points="1001.19,-684 907.19,-684 907.19,-648 1001.19,-648 1001.19,-684"/>
<text xml:space="preserve" text-anchor="middle" x="954.19" y="-662.12" font-family="Times New Roman,serif" font-size="10.00">convert_body_row</text>
</g>
<!-- MD_TABLE_PROCESSOR_convert_tbody_start -->
<g id="node42" class="node">
<title>MD_TABLE_PROCESSOR_convert_tbody_start</title>
<polygon fill="lightcoral" stroke="black" points="1026.44,-740 927.94,-740 927.94,-704 1026.44,-704 1026.44,-740"/>
<text xml:space="preserve" text-anchor="middle" x="977.19" y="-718.12" font-family="Times New Roman,serif" font-size="10.00">convert_tbody_start</text>
</g>
<!-- MD_TABLE_PROCESSOR_convert_tbody_end -->
<g id="node43" class="node">
<title>MD_TABLE_PROCESSOR_convert_tbody_end</title>
<polygon fill="lightcoral" stroke="black" points="1171.31,-852 1075.06,-852 1075.06,-816 1171.31,-816 1171.31,-852"/>
<text xml:space="preserve" text-anchor="middle" x="1123.19" y="-830.12" font-family="Times New Roman,serif" font-size="10.00">convert_tbody_end</text>
</g>
<!-- MD_TABLE_PROCESSOR_inline_processor -->
<g id="node44" class="node">
<title>MD_TABLE_PROCESSOR_inline_processor</title>
<polygon fill="lightgray" stroke="black" points="1108.94,-642 1025.44,-642 1025.44,-606 1108.94,-606 1108.94,-642"/>
<text xml:space="preserve" text-anchor="middle" x="1067.19" y="-620.13" font-family="Times New Roman,serif" font-size="10.00">inline_processor</text>
</g>
<!-- MD_TABLE_PROCESSOR_parse_cells -->
<g id="node45" class="node">
<title>MD_TABLE_PROCESSOR_parse_cells</title>
<polygon fill="khaki" stroke="black" points="911.69,-782 850.69,-782 850.69,-746 911.69,-746 911.69,-782"/>
<text xml:space="preserve" text-anchor="middle" x="881.19" y="-760.13" font-family="Times New Roman,serif" font-size="10.00">parse_cells</text>
</g>
<!-- SIMPLE_MARKDOWN_make -->
<g id="node46" class="node">
<title>SIMPLE_MARKDOWN_make</title>
<polygon fill="khaki" stroke="black" points="781,-274 727,-274 727,-238 781,-238 781,-274"/>
<text xml:space="preserve" text-anchor="middle" x="754" y="-252.12" font-family="Times New Roman,serif" font-size="10.00">make</text>
</g>
<!-- SIMPLE_MARKDOWN_to_html -->
<g id="node47" class="node">
<title>SIMPLE_MARKDOWN_to_html</title>
<polygon fill="palegreen" stroke="black" points="313,-346 259,-346 259,-310 313,-310 313,-346"/>
<text xml:space="preserve" text-anchor="middle" x="286" y="-324.12" font-family="Times New Roman,serif" font-size="10.00">to_html</text>
</g>
<!-- SIMPLE_MARKDOWN_to_html_from_file -->
<g id="node48" class="node">
<title>SIMPLE_MARKDOWN_to_html_from_file</title>
<polygon fill="khaki" stroke="black" points="427.5,-292 336.5,-292 336.5,-256 427.5,-256 427.5,-292"/>
<text xml:space="preserve" text-anchor="middle" x="382" y="-270.12" font-family="Times New Roman,serif" font-size="10.00">to_html_from_file</text>
</g>
<!-- SIMPLE_MARKDOWN_to_html_fragment -->
<g id="node49" class="node">
<title>SIMPLE_MARKDOWN_to_html_fragment</title>
<polygon fill="khaki" stroke="black" points="569.75,-292 480.25,-292 480.25,-256 569.75,-256 569.75,-292"/>
<text xml:space="preserve" text-anchor="middle" x="525" y="-270.12" font-family="Times New Roman,serif" font-size="10.00">to_html_fragment</text>
</g>
<!-- SIMPLE_MARKDOWN_last_html -->
<g id="node50" class="node">
<title>SIMPLE_MARKDOWN_last_html</title>
<polygon fill="lightgray" stroke="black" points="319.12,-652 264.88,-652 264.88,-616 319.12,-616 319.12,-652"/>
<text xml:space="preserve" text-anchor="middle" x="292" y="-630.12" font-family="Times New Roman,serif" font-size="10.00">last_html</text>
</g>
<!-- SIMPLE_MARKDOWN_headings -->
<g id="node51" class="node">
<title>SIMPLE_MARKDOWN_headings</title>
<polygon fill="lightgray" stroke="black" points="757,-214 703,-214 703,-178 757,-178 757,-214"/>
<text xml:space="preserve" text-anchor="middle" x="730" y="-192.12" font-family="Times New Roman,serif" font-size="10.00">headings</text>
</g>
<!-- SIMPLE_MARKDOWN_table_of_contents -->
<g id="node52" class="node">
<title>SIMPLE_MARKDOWN_table_of_contents</title>
<polygon fill="lightcoral" stroke="black" points="437.75,-586 348.25,-586 348.25,-550 437.75,-550 437.75,-586"/>
<text xml:space="preserve" text-anchor="middle" x="393" y="-564.12" font-family="Times New Roman,serif" font-size="10.00">table_of_contents</text>
</g>
<!-- SIMPLE_MARKDOWN_is_heading -->
<g id="node53" class="node">
<title>SIMPLE_MARKDOWN_is_heading</title>
<polygon fill="khaki" stroke="black" points="757.5,-652 696.5,-652 696.5,-616 757.5,-616 757.5,-652"/>
<text xml:space="preserve" text-anchor="middle" x="727" y="-630.12" font-family="Times New Roman,serif" font-size="10.00">is_heading</text>
</g>
<!-- SIMPLE_MARKDOWN_is_blockquote -->
<g id="node54" class="node">
<title>SIMPLE_MARKDOWN_is_blockquote</title>
<polygon fill="khaki" stroke="black" points="459.25,-232 384.75,-232 384.75,-196 459.25,-196 459.25,-232"/>
<text xml:space="preserve" text-anchor="middle" x="422" y="-210.12" font-family="Times New Roman,serif" font-size="10.00">is_blockquote</text>
</g>
<!-- SIMPLE_MARKDOWN_is_unordered_list_item -->
<g id="node55" class="node">
<title>SIMPLE_MARKDOWN_is_unordered_list_item</title>
<polygon fill="khaki" stroke="black" points="675.25,-412 564.75,-412 564.75,-376 675.25,-376 675.25,-412"/>
<text xml:space="preserve" text-anchor="middle" x="620" y="-390.12" font-family="Times New Roman,serif" font-size="10.00">is_unordered_list_item</text>
</g>
<!-- SIMPLE_MARKDOWN_is_task_list_item -->
<g id="node56" class="node">
<title>SIMPLE_MARKDOWN_is_task_list_item</title>
<polygon fill="khaki" stroke="black" points="733.88,-472 648.12,-472 648.12,-436 733.88,-436 733.88,-472"/>
<text xml:space="preserve" text-anchor="middle" x="691" y="-450.12" font-family="Times New Roman,serif" font-size="10.00">is_task_list_item</text>
</g>
<!-- SIMPLE_MARKDOWN_is_ordered_list_item -->
<g id="node57" class="node">
<title>SIMPLE_MARKDOWN_is_ordered_list_item</title>
<polygon fill="khaki" stroke="black" points="677,-532 577,-532 577,-496 677,-496 677,-532"/>
<text xml:space="preserve" text-anchor="middle" x="627" y="-510.12" font-family="Times New Roman,serif" font-size="10.00">is_ordered_list_item</text>
</g>
<!-- SIMPLE_MARKDOWN_is_code_fence -->
<g id="node58" class="node">
<title>SIMPLE_MARKDOWN_is_code_fence</title>
<polygon fill="khaki" stroke="black" points="417.25,-646 342.75,-646 342.75,-610 417.25,-610 417.25,-646"/>
<text xml:space="preserve" text-anchor="middle" x="380" y="-624.13" font-family="Times New Roman,serif" font-size="10.00">is_code_fence</text>
</g>
<!-- SIMPLE_MARKDOWN_is_horizontal_rule -->
<g id="node59" class="node">
<title>SIMPLE_MARKDOWN_is_horizontal_rule</title>
<polygon fill="khaki" stroke="black" points="553.5,-586 462.5,-586 462.5,-550 553.5,-550 553.5,-586"/>
<text xml:space="preserve" text-anchor="middle" x="508" y="-564.12" font-family="Times New Roman,serif" font-size="10.00">is_horizontal_rule</text>
</g>
<!-- SIMPLE_MARKDOWN_is_blank_line -->
<g id="node60" class="node">
<title>SIMPLE_MARKDOWN_is_blank_line</title>
<polygon fill="khaki" stroke="black" points="511.12,-646 438.87,-646 438.87,-610 511.12,-610 511.12,-646"/>
<text xml:space="preserve" text-anchor="middle" x="475" y="-624.13" font-family="Times New Roman,serif" font-size="10.00">is_blank_line</text>
</g>
<!-- SIMPLE_MARKDOWN_is_footnote_definition -->
<g id="node61" class="node">
<title>SIMPLE_MARKDOWN_is_footnote_definition</title>
<polygon fill="khaki" stroke="black" points="589.12,-352 480.87,-352 480.87,-316 589.12,-316 589.12,-352"/>
<text xml:space="preserve" text-anchor="middle" x="535" y="-330.12" font-family="Times New Roman,serif" font-size="10.00">is_footnote_definition</text>
</g>
<!-- SIMPLE_MARKDOWN_process_line -->
<g id="node62" class="node">
<title>SIMPLE_MARKDOWN_process_line</title>
<polygon fill="khaki" stroke="black" points="763.5,-364 696.5,-364 696.5,-328 763.5,-328 763.5,-364"/>
<text xml:space="preserve" text-anchor="middle" x="730" y="-342.12" font-family="Times New Roman,serif" font-size="10.00">process_line</text>
</g>
<!-- SIMPLE_MARKDOWN_convert_heading -->
<g id="node63" class="node">
<title>SIMPLE_MARKDOWN_convert_heading</title>
<polygon fill="khaki" stroke="black" points="565.5,-232 480.5,-232 480.5,-196 565.5,-196 565.5,-232"/>
<text xml:space="preserve" text-anchor="middle" x="523" y="-210.12" font-family="Times New Roman,serif" font-size="10.00">convert_heading</text>
</g>
<!-- SIMPLE_MARKDOWN_convert_blockquote -->
<g id="node64" class="node">
<title>SIMPLE_MARKDOWN_convert_blockquote</title>
<polygon fill="khaki" stroke="black" points="459.25,-352 360.75,-352 360.75,-316 459.25,-316 459.25,-352"/>
<text xml:space="preserve" text-anchor="middle" x="410" y="-330.12" font-family="Times New Roman,serif" font-size="10.00">convert_blockquote</text>
</g>
<!-- SIMPLE_MARKDOWN_convert_list_item -->
<g id="node65" class="node">
<title>SIMPLE_MARKDOWN_convert_list_item</title>
<polygon fill="khaki" stroke="black" points="371,-526 283,-526 283,-490 371,-490 371,-526"/>
<text xml:space="preserve" text-anchor="middle" x="327" y="-504.12" font-family="Times New Roman,serif" font-size="10.00">convert_list_item</text>
</g>
<!-- SIMPLE_MARKDOWN_convert_task_list_item -->
<g id="node66" class="node">
<title>SIMPLE_MARKDOWN_convert_task_list_item</title>
<polygon fill="khaki" stroke="black" points="625.87,-472 516.12,-472 516.12,-436 625.87,-436 625.87,-472"/>
<text xml:space="preserve" text-anchor="middle" x="571" y="-450.12" font-family="Times New Roman,serif" font-size="10.00">convert_task_list_item</text>
</g>
<!-- SIMPLE_MARKDOWN_convert_footnote_definition -->
<g id="node67" class="node">
<title>SIMPLE_MARKDOWN_convert_footnote_definition</title>
<polygon fill="khaki" stroke="black" points="541.12,-412 408.87,-412 408.87,-376 541.12,-376 541.12,-412"/>
<text xml:space="preserve" text-anchor="middle" x="475" y="-390.12" font-family="Times New Roman,serif" font-size="10.00">convert_footnote_definition</text>
</g>
<!-- SIMPLE_MARKDOWN_process_table_line -->
<g id="node68" class="node">
<title>SIMPLE_MARKDOWN_process_table_line</title>
<polygon fill="khaki" stroke="black" points="705.25,-304 612.75,-304 612.75,-268 705.25,-268 705.25,-304"/>
<text xml:space="preserve" text-anchor="middle" x="659" y="-282.12" font-family="Times New Roman,serif" font-size="10.00">process_table_line</text>
</g>
<!-- SIMPLE_MARKDOWN_start_code_block -->
<g id="node69" class="node">
<title>SIMPLE_MARKDOWN_start_code_block</title>
<polygon fill="khaki" stroke="black" points="681.25,-244 594.75,-244 594.75,-208 681.25,-208 681.25,-244"/>
<text xml:space="preserve" text-anchor="middle" x="638" y="-222.12" font-family="Times New Roman,serif" font-size="10.00">start_code_block</text>
</g>
<!-- SIMPLE_MARKDOWN_close_paragraph -->
<g id="node70" class="node">
<title>SIMPLE_MARKDOWN_close_paragraph</title>
<polygon fill="khaki" stroke="black" points="389.37,-466 306.62,-466 306.62,-430 389.37,-430 389.37,-466"/>
<text xml:space="preserve" text-anchor="middle" x="348" y="-444.13" font-family="Times New Roman,serif" font-size="10.00">close_paragraph</text>
</g>
<!-- SIMPLE_MARKDOWN_close_list -->
<g id="node71" class="node">
<title>SIMPLE_MARKDOWN_close_list</title>
<polygon fill="khaki" stroke="black" points="643.5,-184 588.5,-184 588.5,-148 643.5,-148 643.5,-184"/>
<text xml:space="preserve" text-anchor="middle" x="616" y="-162.13" font-family="Times New Roman,serif" font-size="10.00">close_list</text>
</g>
<!-- SIMPLE_MARKDOWN_close_table -->
<g id="node72" class="node">
<title>SIMPLE_MARKDOWN_close_table</title>
<polygon fill="khaki" stroke="black" points="759.25,-532 696.75,-532 696.75,-496 759.25,-496 759.25,-532"/>
<text xml:space="preserve" text-anchor="middle" x="728" y="-510.12" font-family="Times New Roman,serif" font-size="10.00">close_table</text>
</g>
<!-- SIMPLE_MARKDOWN_close_all_blocks -->
<g id="node73" class="node">
<title>SIMPLE_MARKDOWN_close_all_blocks</title>
<polygon fill="khaki" stroke="black" points="721.5,-592 636.5,-592 636.5,-556 721.5,-556 721.5,-592"/>
<text xml:space="preserve" text-anchor="middle" x="679" y="-570.13" font-family="Times New Roman,serif" font-size="10.00">close_all_blocks</text>
</g>
<!-- SIMPLE_MARKDOWN_inline_processor -->
<g id="node74" class="node">
<title>SIMPLE_MARKDOWN_inline_processor</title>
<polygon fill="lightgray" stroke="black" points="359.75,-232 276.25,-232 276.25,-196 359.75,-196 359.75,-232"/>
<text xml:space="preserve" text-anchor="middle" x="318" y="-210.12" font-family="Times New Roman,serif" font-size="10.00">inline_processor</text>
</g>
<!-- SIMPLE_MARKDOWN_table_processor -->
<g id="node75" class="node">
<title>SIMPLE_MARKDOWN_table_processor</title>
<polygon fill="lightgray" stroke="black" points="613.88,-646 534.12,-646 534.12,-610 613.88,-610 613.88,-646"/>
<text xml:space="preserve" text-anchor="middle" x="574" y="-624.13" font-family="Times New Roman,serif" font-size="10.00">table_processor</text>
</g>
<!-- SIMPLE_MARKDOWN_split_lines -->
<g id="node76" class="node">
<title>SIMPLE_MARKDOWN_split_lines</title>
<polygon fill="khaki" stroke="black" points="329.37,-586 270.62,-586 270.62,-550 329.37,-550 329.37,-586"/>
<text xml:space="preserve" text-anchor="middle" x="300" y="-564.12" font-family="Times New Roman,serif" font-size="10.00">split_lines</text>
</g>
<!-- SIMPLE_MARKDOWN_escape_html -->
<g id="node77" class="node">
<title>SIMPLE_MARKDOWN_escape_html</title>
<polygon fill="khaki" stroke="black" points="337.5,-406 270.5,-406 270.5,-370 337.5,-370 337.5,-406"/>
<text xml:space="preserve" text-anchor="middle" x="304" y="-384.12" font-family="Times New Roman,serif" font-size="10.00">escape_html</text>
</g>
<!-- SIMPLE_MARKDOWN_generate_heading_id -->
<g id="node78" class="node">
<title>SIMPLE_MARKDOWN_generate_heading_id</title>
<polygon fill="khaki" stroke="black" points="493.12,-526 390.87,-526 390.87,-490 493.12,-490 493.12,-526"/>
<text xml:space="preserve" text-anchor="middle" x="442" y="-504.12" font-family="Times New Roman,serif" font-size="10.00">generate_heading_id</text>
</g>
<!-- LIB_TESTS_test_heading_h1 -->
<g id="node79" class="node">
<title>LIB_TESTS_test_heading_h1</title>
<polygon fill="lightgray" stroke="black" points="602.12,-36 517.87,-36 517.87,0 602.12,0 602.12,-36"/>
<text xml:space="preserve" text-anchor="middle" x="560" y="-14.12" font-family="Times New Roman,serif" font-size="10.00">test_heading_h1</text>
</g>
<!-- TEST_APP_make -->
<g id="node80" class="node">
<title>TEST_APP_make</title>
<polygon fill="lightcoral" stroke="black" points="54,-443.5 0,-443.5 0,-407.5 54,-407.5 54,-443.5"/>
<text xml:space="preserve" text-anchor="middle" x="27" y="-421.62" font-family="Times New Roman,serif" font-size="10.00">make</text>
</g>
<!-- TEST_APP_tests -->
<g id="node81" class="node">
<title>TEST_APP_tests</title>
<polygon fill="lightgray" stroke="black" points="99,-498.5 45,-498.5 45,-462.5 99,-462.5 99,-498.5"/>
<text xml:space="preserve" text-anchor="middle" x="72" y="-476.62" font-family="Times New Roman,serif" font-size="10.00">tests</text>
</g>
<!-- TEST_APP_passed -->
<g id="node82" class="node">
<title>TEST_APP_passed</title>
<polygon fill="lightgray" stroke="black" points="164,-553.5 110,-553.5 110,-517.5 164,-517.5 164,-553.5"/>
<text xml:space="preserve" text-anchor="middle" x="137" y="-531.62" font-family="Times New Roman,serif" font-size="10.00">passed</text>
</g>
<!-- TEST_APP_failed -->
<g id="node83" class="node">
<title>TEST_APP_failed</title>
<polygon fill="lightgray" stroke="black" points="89,-558.5 35,-558.5 35,-522.5 89,-522.5 89,-558.5"/>
<text xml:space="preserve" text-anchor="middle" x="62" y="-536.62" font-family="Times New Roman,serif" font-size="10.00">failed</text>
</g>
<!-- TEST_APP_run_test -->
<g id="node84" class="node">
<title>TEST_APP_run_test</title>
<polygon fill="lightcoral" stroke="black" points="174,-473.5 120,-473.5 120,-437.5 174,-437.5 174,-473.5"/>
<text xml:space="preserve" text-anchor="middle" x="147" y="-451.62" font-family="Times New Roman,serif" font-size="10.00">run_test</text>
</g>
<!-- legend_full -->
<g id="node85" class="node">
<title>legend_full</title>
<polygon fill="palegreen" stroke="black" points="357.87,-882.12 243.62,-882.12 243.62,-841.12 357.87,-841.12 357.87,-882.12"/>
<text xml:space="preserve" text-anchor="middle" x="300.75" y="-864.83" font-family="Times New Roman,serif" font-size="14.00">Full Contract</text>
<text xml:space="preserve" text-anchor="middle" x="300.75" y="-848.33" font-family="Times New Roman,serif" font-size="14.00">(require + ensure)</text>
</g>
<!-- legend_partial -->
<g id="node86" class="node">
<title>legend_partial</title>
<polygon fill="khaki" stroke="black" points="368.37,-818.12 251.12,-818.12 251.12,-777.12 368.37,-777.12 368.37,-818.12"/>
<text xml:space="preserve" text-anchor="middle" x="309.75" y="-800.83" font-family="Times New Roman,serif" font-size="14.00">Partial Contract</text>
<text xml:space="preserve" text-anchor="middle" x="309.75" y="-784.33" font-family="Times New Roman,serif" font-size="14.00">(require or ensure)</text>
</g>
<!-- legend_none -->
<g id="node87" class="node">
<title>legend_none</title>
<polygon fill="lightcoral" stroke="black" points="334.12,-940.63 251.37,-940.63 251.37,-904.63 334.12,-904.63 334.12,-940.63"/>
<text xml:space="preserve" text-anchor="middle" x="292.75" y="-917.58" font-family="Times New Roman,serif" font-size="14.00">No Contract</text>
</g>
<!-- legend_attr -->
<g id="node88" class="node">
<title>legend_attr</title>
<polygon fill="lightgray" stroke="black" points="228.12,-954.12 163.37,-954.12 163.37,-913.12 228.12,-913.12 228.12,-954.12"/>
<text xml:space="preserve" text-anchor="middle" x="195.75" y="-936.83" font-family="Times New Roman,serif" font-size="14.00">Attribute</text>
<text xml:space="preserve" text-anchor="middle" x="195.75" y="-920.33" font-family="Times New Roman,serif" font-size="14.00">(n/a)</text>
</g>
<!-- legend_stats -->
<g id="node89" class="node">
<title>legend_stats</title>
<polygon fill="white" stroke="black" points="213.87,-892.12 147.62,-892.12 147.62,-785.12 219.87,-785.12 219.87,-886.12 213.87,-892.12"/>
<polyline fill="none" stroke="black" points="213.87,-892.12 213.87,-886.12"/>
<polyline fill="none" stroke="black" points="219.87,-886.12 213.87,-886.12"/>
<text xml:space="preserve" text-anchor="middle" x="183.75" y="-874.83" font-family="Times New Roman,serif" font-size="14.00">Statistics</text>
<text xml:space="preserve" text-anchor="middle" x="183.75" y="-858.33" font-family="Times New Roman,serif" font-size="14.00">Full: 2</text>
<text xml:space="preserve" text-anchor="middle" x="183.75" y="-841.83" font-family="Times New Roman,serif" font-size="14.00">Partial: 51</text>
<text xml:space="preserve" text-anchor="middle" x="183.75" y="-825.33" font-family="Times New Roman,serif" font-size="14.00">None: 10</text>
<text xml:space="preserve" text-anchor="middle" x="183.75" y="-808.83" font-family="Times New Roman,serif" font-size="14.00">Attr: 21</text>
<text xml:space="preserve" text-anchor="middle" x="183.75" y="-792.33" font-family="Times New Roman,serif" font-size="14.00">Total: 84</text>
</g>
</g>
</svg>
