<?xml version="1.0" encoding="UTF-8" standalone="no"?>
<!DOCTYPE svg PUBLIC "-//W3C//DTD SVG 1.1//EN"
 "http://www.w3.org/Graphics/SVG/1.1/DTD/svg11.dtd">
<!-- Generated by graphviz version 14.1.1 (20251213.1925)
 -->
<!-- Title: Dependencies Pages: 1 -->
<svg width="366pt" height="213pt"
 viewBox="0.00 0.00 366.00 213.00" xmlns="http://www.w3.org/2000/svg" xmlns:xlink="http://www.w3.org/1999/xlink">
<g id="graph0" class="graph" transform="scale(1 1) rotate(0) translate(4 208.5)">
<title>Dependencies</title>
<polygon fill="white" stroke="none" points="-4,4 -4,-208.5 361.5,-208.5 361.5,4 -4,4"/>
<text xml:space="preserve" text-anchor="middle" x="178.75" y="-7.2" font-family="Times New Roman,serif" font-size="14.00">simple_markdown &#45; Dependencies</text>
<!-- simple_markdown -->
<g id="node1" class="node">
<title>simple_markdown</title>
<polygon fill="lightblue" stroke="black" points="118,-132.5 0,-132.5 0,-96.5 118,-96.5 118,-132.5"/>
<text xml:space="preserve" text-anchor="middle" x="59" y="-109.45" font-family="Times New Roman,serif" font-size="14.00">simple_markdown</text>
</g>
<!-- simple_testing -->
<g id="node2" class="node">
<title>simple_testing</title>
<polygon fill="lightblue" stroke="black" points="357.5,-204.5 262,-204.5 262,-168.5 357.5,-168.5 357.5,-204.5"/>
<text xml:space="preserve" text-anchor="middle" x="309.75" y="-181.45" font-family="Times New Roman,serif" font-size="14.00">simple_testing</text>
</g>
<!-- simple_markdown&#45;&gt;simple_testing -->
<g id="edge1" class="edge">
<title>simple_markdown&#45;&gt;simple_testing</title>
<path fill="none" stroke="black" stroke-dasharray="5,2" d="M118.47,-120.5C181.64,-120.5 272.5,-120.5 272.5,-120.5 272.5,-120.5 272.5,-156.6 272.5,-156.6"/>
<polygon fill="black" stroke="black" points="269,-156.6 272.5,-166.6 276,-156.6 269,-156.6"/>
</g>
<!-- base -->
<g id="node3" class="node">
<title>base</title>
<polygon fill="lightgray" stroke="black" points="336.75,-132.5 282.75,-132.5 282.75,-96.5 336.75,-96.5 336.75,-132.5"/>
<text xml:space="preserve" text-anchor="middle" x="309.75" y="-109.45" font-family="Times New Roman,serif" font-size="14.00">base</text>
</g>
<!-- simple_markdown&#45;&gt;base -->
<g id="edge2" class="edge">
<title>simple_markdown&#45;&gt;base</title>
<path fill="none" stroke="black" stroke-dasharray="5,2" d="M118.42,-108.5C118.42,-108.5 270.79,-108.5 270.79,-108.5"/>
<polygon fill="black" stroke="black" points="270.79,-112 280.79,-108.5 270.79,-105 270.79,-112"/>
</g>
<!-- testing -->
<g id="node4" class="node">
<title>testing</title>
<polygon fill="lightgray" stroke="black" points="336.75,-60.5 282.75,-60.5 282.75,-24.5 336.75,-24.5 336.75,-60.5"/>
<text xml:space="preserve" text-anchor="middle" x="309.75" y="-37.45" font-family="Times New Roman,serif" font-size="14.00">testing</text>
</g>
<!-- simple_markdown&#45;&gt;testing -->
<g id="edge3" class="edge">
<title>simple_markdown&#45;&gt;testing</title>
<path fill="none" stroke="black" stroke-dasharray="5,2" d="M58.5,-96.33C58.5,-75 58.5,-42.5 58.5,-42.5 58.5,-42.5 270.87,-42.5 270.87,-42.5"/>
<polygon fill="black" stroke="black" points="270.87,-46 280.87,-42.5 270.87,-39 270.87,-46"/>
</g>
</g>
</svg>
